# xmcd
#
# Track frame offsets: 
#        150
#        24372
#        40669
#        54487
#        73085
#        96895
#        111204
#        115288
#        134230
#        153143
#        178286
#        200185
#
# Disc length: 2869 seconds
#
# Revision: 0
# Processed by: cddbd v1.5.2PL0 Copyright (c) Steve Scherf et al.
# Submitted via: ExactAudioCopy v0.95b4
#
DISCID=af0b330c
DTITLE=Formacya DINGOLAR - Zlatni Kiutchetzi 5&6
DYEAR=2005
DGENRE=Ethnic
TTITLE0=Binas
TTITLE1=Latcho Stefcho
TTITLE2=Dobrudjanski
TTITLE3=Cyala Wecher
TTITLE4=Alele
TTITLE5=Mahala
TTITLE6=Instrumental
TTITLE7=Emina
TTITLE8=Tzaritza Rumyana
TTITLE9=Dingolar
TTITLE10=Jamile
TTITLE11=Taxi Volga
EXTD=
EXTT0=
EXTT1=
EXTT2=
EXTT3=
EXTT4=
EXTT5=
EXTT6=
EXTT7=
EXTT8=
EXTT9=
EXTT10=
EXTT11=
PLAYORDER=
